HIERARCHY
ROOT hip
{
	OFFSET	0.00  0.00  0.00 
	CHANNELS 6 Xposition Yposition Zposition Xrotation Zrotation Yrotation
	JOINT waist
	{
		OFFSET	0.000000 2.191865 -0.079388
		CHANNELS 3 Xrotation Zrotation Yrotation
		JOINT abdomen
		{
			OFFSET	0.000000 2.770984 0.119082
			CHANNELS 3 Xrotation Zrotation Yrotation
			JOINT chest
			{
				OFFSET	0.000000 2.879627 -0.290598
				CHANNELS 3 Xrotation Zrotation Yrotation
				JOINT neck
				{
					OFFSET	0.000000 12.342733 -1.613748
					CHANNELS 3 Xrotation Zrotation Yrotation
					JOINT head
					{
						OFFSET	0.000000 4.485597 1.807195
						CHANNELS 3 Xrotation Zrotation Yrotation
						End Site
						{
							OFFSET 0.000000 7.191734 2.024398
						}
					}
				}
				JOINT lCollar
				{
					OFFSET	1.858774 10.237258 -1.915852
					CHANNELS 3 Zrotation Yrotation Xrotation
					JOINT lShldr
					{
						OFFSET	6.103279 0.000102 -0.038601
						CHANNELS 3 Zrotation Yrotation Xrotation
						JOINT lForeArm
						{
							OFFSET	10.574100 -0.365985 -0.655940
							CHANNELS 3 Zrotation Yrotation Xrotation
							JOINT lHand
							{
								OFFSET	13.213392 -0.641131 0.276866
								CHANNELS 3 Zrotation Yrotation Xrotation
								JOINT lThumb1
								{
									OFFSET	1.920964 -1.225712 1.722395
									CHANNELS 3 Zrotation Yrotation Xrotation
									JOINT lThumb2
									{
										OFFSET	0.248544 -0.143036 0.768265
										CHANNELS 3 Zrotation Yrotation Xrotation
										JOINT lThumb3
										{
											OFFSET	0.628484 -0.225174 0.508305
											CHANNELS 3 Zrotation Yrotation Xrotation
											End Site
											{
												OFFSET 0.831712 -0.207978 0.609962
											}
										}
									}
								}
								JOINT lIndex1
								{
									OFFSET	5.093442 -0.710319 1.829884
									CHANNELS 3 Zrotation Yrotation Xrotation
									JOINT lIndex2
									{
										OFFSET	0.889470 -0.051998 0.127073
										CHANNELS 3 Zrotation Yrotation Xrotation
										JOINT lIndex3
										{
											OFFSET	0.889570 -0.155981 0.127073
											CHANNELS 3 Zrotation Yrotation Xrotation
											End Site
											{
												OFFSET 0.797115 -0.294470 0.076252
											}
										}
									}
								}
								JOINT lMid1
								{
									OFFSET	5.154641 -0.519844 0.864111
									CHANNELS 3 Zrotation Yrotation Xrotation
									JOINT lMid2
									{
										OFFSET	0.928821 -0.051992 0.050831
										CHANNELS 3 Zrotation Yrotation Xrotation
										JOINT lMid3
										{
											OFFSET	0.984253 -0.311865 0.050831
											CHANNELS 3 Zrotation Yrotation Xrotation
											End Site
											{
												OFFSET 0.779717 -0.606438 -0.050831
											}
										}
									}
								}
								JOINT lRing1
								{
									OFFSET	4.924408 -0.754930 -0.235503
									CHANNELS 3 Zrotation Yrotation Xrotation
									JOINT lRing2
									{
										OFFSET	0.981624 -0.036924 -0.108278
										CHANNELS 3 Zrotation Yrotation Xrotation
										JOINT lRing3
										{
											OFFSET	0.805613 -0.205247 -0.041717
											CHANNELS 3 Zrotation Yrotation Xrotation
											End Site
											{
												OFFSET 0.667431 -0.470481 -0.035991
											}
										}
									}
								}
								JOINT lPinky1
								{
									OFFSET	4.535460 -0.816635 -1.006206
									CHANNELS 3 Zrotation Yrotation Xrotation
									JOINT lPinky2
									{
										OFFSET	0.690596 -0.064334 -0.168800
										CHANNELS 3 Zrotation Yrotation Xrotation
										JOINT lPinky3
										{
											OFFSET	0.598039 -0.111176 -0.071973
											CHANNELS 3 Zrotation Yrotation Xrotation
											End Site
											{
												OFFSET 0.422025 -0.290925 -0.035981
											}
										}
									}
								}
							}
						}
					}
				}
				JOINT rCollar
				{
					OFFSET	-1.858774 10.237258 -1.915852
					CHANNELS 3 Zrotation Yrotation Xrotation
					JOINT rShldr
					{
						OFFSET	-6.103279 0.000102 -0.038601
						CHANNELS 3 Zrotation Yrotation Xrotation
						JOINT rForeArm
						{
							OFFSET	-10.574100 -0.365985 -0.655940
							CHANNELS 3 Zrotation Yrotation Xrotation
							JOINT rHand
							{
								OFFSET	-13.213392 -0.641131 0.276866
								CHANNELS 3 Zrotation Yrotation Xrotation
								JOINT rIndex1
								{
									OFFSET	-5.093442 -0.710319 1.829884
									CHANNELS 3 Zrotation Yrotation Xrotation
									JOINT rIndex2
									{
										OFFSET	-0.889470 -0.051998 0.127073
										CHANNELS 3 Zrotation Yrotation Xrotation
										JOINT rIndex3
										{
											OFFSET	-0.889570 -0.155981 0.127073
											CHANNELS 3 Zrotation Yrotation Xrotation
											End Site
											{
												OFFSET -0.797115 -0.294470 0.076252
											}
										}
									}
								}
								JOINT rThumb1
								{
									OFFSET	-1.920964 -1.225712 1.722395
									CHANNELS 3 Zrotation Yrotation Xrotation
									JOINT rThumb2
									{
										OFFSET	-0.248544 -0.143036 0.768265
										CHANNELS 3 Zrotation Yrotation Xrotation
										JOINT rThumb3
										{
											OFFSET	-0.628484 -0.225174 0.508305
											CHANNELS 3 Zrotation Yrotation Xrotation
											End Site
											{
												OFFSET -0.831712 -0.207978 0.609962
											}
										}
									}
								}
								JOINT rMid1
								{
									OFFSET	-5.154641 -0.519844 0.864111
									CHANNELS 3 Zrotation Yrotation Xrotation
									JOINT rMid2
									{
										OFFSET	-0.928821 -0.051992 0.050831
										CHANNELS 3 Zrotation Yrotation Xrotation
										JOINT rMid3
										{
											OFFSET	-0.984253 -0.311865 0.050831
											CHANNELS 3 Zrotation Yrotation Xrotation
											End Site
											{
												OFFSET -0.779717 -0.606438 -0.050831
											}
										}
									}
								}
								JOINT rRing1
								{
									OFFSET	-4.924408 -0.754930 -0.235503
									CHANNELS 3 Zrotation Yrotation Xrotation
									JOINT rRing2
									{
										OFFSET	-0.981624 -0.036924 -0.108278
										CHANNELS 3 Zrotation Yrotation Xrotation
										JOINT rRing3
										{
											OFFSET	-0.805613 -0.205247 -0.041717
											CHANNELS 3 Zrotation Yrotation Xrotation
											End Site
											{
												OFFSET -0.667431 -0.470481 -0.035991
											}
										}
									}
								}
								JOINT rPinky1
								{
									OFFSET	-4.535460 -0.816635 -1.006206
									CHANNELS 3 Zrotation Yrotation Xrotation
									JOINT rPinky2
									{
										OFFSET	-0.690596 -0.064334 -0.168800
										CHANNELS 3 Zrotation Yrotation Xrotation
										JOINT rPinky3
										{
											OFFSET	-0.598039 -0.111176 -0.071973
											CHANNELS 3 Zrotation Yrotation Xrotation
											End Site
											{
												OFFSET -0.422025 -0.290925 -0.035981
											}
										}
									}
								}
							}
						}
					}
				}
			}
		}
	}
	JOINT lThigh
	{
		OFFSET	5.761895 -0.730553 0.000101
		CHANNELS 3 Xrotation Zrotation Yrotation
		JOINT lShin
		{
			OFFSET	-1.171020 -18.459274 1.627449
			CHANNELS 3 Xrotation Zrotation Yrotation
			JOINT lFoot
			{
				OFFSET	-0.883715 -16.872776 -3.357785
				CHANNELS 3 Xrotation Zrotation Yrotation
				JOINT lToe
				{
					OFFSET	1.287613 -2.778491 2.836049
					CHANNELS 3 Xrotation Yrotation Zrotation
					End Site
					{
						OFFSET 1.362641 -0.436631 3.828194
					}
				}
			}
		}
	}
	JOINT rThigh
	{
		OFFSET	-5.761895 -0.730553 0.000101
		CHANNELS 3 Xrotation Zrotation Yrotation
		JOINT rShin
		{
			OFFSET	1.171020 -18.459274 1.627449
			CHANNELS 3 Xrotation Zrotation Yrotation
			JOINT rFoot
			{
				OFFSET	0.883715 -16.872776 -3.357785
				CHANNELS 3 Xrotation Zrotation Yrotation
				JOINT rToe
				{
					OFFSET	-1.287613 -2.778491 2.836049
					CHANNELS 3 Xrotation Yrotation Zrotation
					End Site
					{
						OFFSET -1.362641 -0.436631 3.828194
					}
				}
			}
		}
	}
}
MOTION
Frames:     7
Frame Time: 0.033333
-5.302454 40.582443 -5.991787 7.451342 1.056812 -0.107699 -11.699218 0.019513 -0.000832 -4.218750 0.009601 0.001787 11.962724 -2.098861 0.004847 5.605460 -0.045288 0.018254 -4.805423 0.091362 -0.035848 19.291943 0.677054 1.044380 -85.046913 -20.879223 -3.241001 5.735025 4.369322 31.587561 -4.789085 -3.637563 -2.465581 8.028967 23.575907 12.036073 -1.803695 -19.849873 -4.900383 -2.900475 8.121788 4.608876 -4.768952 -10.130701 0.075307 6.136953 -2.542719 -1.329028 5.977931 -4.657061 -2.299399 -3.649124 -3.899469 -0.028462 6.809108 0.587538 -0.179242 17.693647 -7.762904 -4.920654 -10.319902 0.070951 -0.943652 10.744991 5.478974 1.944765 23.550476 -1.345739 0.354980 -14.307809 -5.634895 -4.544772 3.438662 12.909055 2.795864 29.599695 -4.046283 -0.184964 -19.585613 -1.457064 1.215106 88.490150 -5.095848 -25.328814 -13.715340 -20.877638 85.246910 -32.837421 20.893135 -6.425135 2.734022 8.307910 -0.104714 -6.224143 2.512025 -1.332358 -6.058117 4.747227 -2.337263 -9.000076 -25.805208 10.709899 1.755815 19.819010 -4.910490 2.899710 -8.101471 4.617510 1.926006 2.038767 -0.017843 -6.788700 -0.391102 -0.238138 -17.832827 7.798688 -4.938871 9.030812 -1.741597 -0.825117 -10.685586 -5.450859 1.935492 -23.598396 1.261770 0.420547 13.188667 4.331294 -3.999662 -3.178394 -12.874853 2.755607 -0.010665 -0.005522 -0.008007 -12.530590 -4.198232 6.991187 5.821056 6.722135 -3.393067 1.043663 1.487007 0.718166 4.666809 7.603515 -0.760056 -14.724862 -2.732403 -10.320714 8.357946 -9.716618 3.592988 2.992760 -6.925865 -4.794272 5.713733 -3.485675 1.585544 
-5.252591 40.560009 -5.888223 7.666171 1.007110 -0.059770 -11.699218 0.019513 -0.000832 -4.218750 0.009601 0.001787 11.757578 -2.126294 -0.016048 5.664047 -0.065158 0.047322 -4.844674 0.291420 -0.081985 18.920542 0.619154 1.071515 -84.772003 -20.571321 -2.302403 -13.379584 24.502728 20.549742 -4.583956 -3.366335 -2.441497 -0.018104 -0.003944 -0.010280 -0.015681 -0.006574 -0.010607 -0.015424 -0.007546 -0.010088 -4.768952 -10.130701 0.075307 6.136953 -2.542719 -1.329028 5.977931 -4.657061 -2.299399 -3.649124 -3.899469 -0.028462 6.809108 0.587538 -0.179242 17.693647 -7.762904 -4.920654 -10.319902 0.070951 -0.943652 10.744991 5.478974 1.944765 23.550476 -1.345739 0.354980 -14.307809 -5.634895 -4.544772 3.438662 12.909055 2.795864 29.599695 -4.046283 -0.184964 -19.096935 -1.409182 1.251246 87.668777 -4.616316 -24.346893 17.209082 -17.509136 74.708214 -32.719120 20.770361 -6.402406 2.734022 8.307910 -0.104714 -6.224143 2.512025 -1.332358 -6.058117 4.747227 -2.337263 -0.001427 -0.010679 0.002670 -0.003851 -0.011809 -0.004022 -0.004104 -0.011405 -0.005351 1.926006 2.038767 -0.017843 -6.788700 -0.391102 -0.238138 -17.832827 7.798688 -4.938871 9.030812 -1.741597 -0.825117 -10.685586 -5.450859 1.935492 -23.598396 1.261770 0.420547 13.188667 4.331294 -3.999662 -3.178394 -12.874853 2.755607 -0.010665 -0.005522 -0.008007 -12.638064 -4.226031 7.007770 5.887857 6.739364 -3.411097 1.092455 1.518831 0.744696 4.666809 7.603515 -0.760056 -14.775190 -2.743353 -10.294751 8.334270 -9.695663 3.496130 3.079419 -7.021361 -4.766045 5.713733 -3.485675 1.585544 
-5.135186 40.505138 -5.668140 7.978689 1.063224 0.077994 -11.699218 0.019513 -0.000832 -4.218750 0.009601 0.001787 11.416033 -2.302843 -0.111675 6.035141 0.070565 -0.060030 -5.059337 0.107518 -0.050538 18.461166 0.551634 1.107897 -84.481079 -20.311621 -1.149206 -15.622944 21.860443 8.015044 -4.329881 -3.046635 -2.413675 -0.018104 -0.003944 -0.010280 -0.015681 -0.006574 -0.010607 -0.015424 -0.007546 -0.010088 -4.768952 -10.130701 0.075307 6.136953 -2.542719 -1.329028 5.977931 -4.657061 -2.299399 -3.649124 -3.899469 -0.028462 6.809108 0.587538 -0.179242 17.693647 -7.762904 -4.920654 -10.319902 0.070951 -0.943652 10.744991 5.478974 1.944765 23.550476 -1.345739 0.354980 -14.307809 -5.634895 -4.544772 3.438662 12.909055 2.795864 29.599695 -4.046283 -0.184964 -18.481153 -1.351746 1.306145 86.775681 -4.175389 -23.071182 18.700508 -15.510474 64.117012 -32.660961 20.655661 -6.382914 2.734022 8.307910 -0.104714 -6.224143 2.512025 -1.332358 -6.058117 4.747227 -2.337263 -0.001427 -0.010679 0.002670 -0.003851 -0.011809 -0.004022 -0.004104 -0.011405 -0.005351 1.926006 2.038767 -0.017843 -6.788700 -0.391102 -0.238138 -17.832827 7.798688 -4.938871 9.030812 -1.741597 -0.825117 -10.685586 -5.450859 1.935492 -23.598396 1.261770 0.420547 13.188667 4.331294 -3.999662 -3.178394 -12.874853 2.755607 -0.010665 -0.005522 -0.008007 -12.645723 -4.391389 6.928614 5.861991 6.699224 -3.360681 1.151120 1.524127 0.803050 4.666809 7.603515 -0.760056 -14.775648 -2.927963 -10.385108 8.392371 -9.755515 3.250148 3.224445 -7.313020 -4.955445 5.713733 -3.485675 1.585544 
-4.988781 40.445454 -5.387686 8.379071 1.069283 0.283216 -11.699218 0.019513 -0.000832 -4.218750 0.009601 0.001787 11.054061 -2.423334 -0.268880 6.240172 0.133968 -0.085586 -5.030115 0.204170 -0.067584 17.952971 0.484178 1.143984 -84.209702 -20.149477 0.114557 -18.868011 18.228321 -10.672815 -4.046385 -2.688123 -2.382417 -0.018104 -0.003944 -0.010280 -0.015681 -0.006574 -0.010607 -0.015424 -0.007546 -0.010088 -4.768952 -10.130701 0.075307 6.136953 -2.542719 -1.329028 5.977931 -4.657061 -2.299399 -3.649124 -3.899469 -0.028462 6.809108 0.587538 -0.179242 17.693647 -7.762904 -4.920654 -10.319902 0.070951 -0.943652 10.744991 5.478974 1.944765 23.550476 -1.345739 0.354980 -14.307809 -5.634895 -4.544772 3.438662 12.909055 2.795864 29.599695 -4.046283 -0.184964 -17.767677 -1.274912 1.360444 85.899376 -3.860005 -21.570801 20.835743 -13.034492 48.273499 -32.703182 20.557655 -6.369221 2.734022 8.307910 -0.104714 -6.224143 2.512025 -1.332358 -6.058117 4.747227 -2.337263 -0.001427 -0.010679 0.002670 -0.003851 -0.011809 -0.004022 -0.004104 -0.011405 -0.005351 1.926006 2.038767 -0.017843 -6.788700 -0.391102 -0.238138 -17.832827 7.798688 -4.938871 9.030812 -1.741597 -0.825117 -10.685586 -5.450859 1.935492 -23.598396 1.261770 0.420547 13.188667 4.331294 -3.999662 -3.178394 -12.874853 2.755607 -0.010665 -0.005522 -0.008007 -12.613695 -4.567170 6.857338 5.744385 6.670404 -3.398632 1.268318 1.581581 0.895895 4.666809 7.603515 -0.760056 -14.769151 -3.103110 -10.436271 8.429000 -9.861428 2.821173 3.466992 -7.670057 -5.217408 5.713733 -3.485675 1.585544 
-4.819189 40.377918 -5.059103 8.789192 1.073755 0.576313 -11.699218 0.019513 -0.000832 -4.218750 0.009601 0.001787 10.711143 -2.511415 -0.452516 6.494029 0.179255 -0.103840 -4.952088 0.286131 -0.100787 17.386124 0.416796 1.189483 -83.938629 -20.074585 1.482295 -22.657013 13.576614 -33.365608 -3.743200 -2.290777 -2.347278 -0.018104 -0.003944 -0.010280 -0.015681 -0.006574 -0.010607 -0.015424 -0.007546 -0.010088 -4.768952 -10.130701 0.075307 6.136953 -2.542719 -1.329028 5.977931 -4.657061 -2.299399 -3.649124 -3.899469 -0.028462 6.809108 0.587538 -0.179242 17.693647 -7.762904 -4.920654 -10.319902 0.070951 -0.943652 10.744991 5.478974 1.944765 23.550476 -1.345739 0.354980 -14.307809 -5.634895 -4.544772 3.438662 12.909055 2.795864 29.599695 -4.046283 -0.184964 -16.985828 -1.188373 1.414313 85.058182 -3.650918 -19.892776 23.380951 -10.178418 28.676308 -32.815384 20.467461 -6.362531 2.734022 8.307910 -0.104714 -6.224143 2.512025 -1.332358 -6.058117 4.747227 -2.337263 -0.001427 -0.010679 0.002670 -0.003851 -0.011809 -0.004022 -0.004104 -0.011405 -0.005351 1.926006 2.038767 -0.017843 -6.788700 -0.391102 -0.238138 -17.832827 7.798688 -4.938871 9.030812 -1.741597 -0.825117 -10.685586 -5.450859 1.935492 -23.598396 1.261770 0.420547 13.188667 4.331294 -3.999662 -3.178394 -12.874853 2.755607 -0.010665 -0.005522 -0.008007 -12.513073 -4.743956 6.781628 5.577800 6.616663 -3.459021 1.395439 1.602779 1.021446 4.666809 7.603515 -0.760056 -14.705235 -3.267610 -10.473839 8.450385 -9.982537 2.314644 3.708169 -8.090767 -5.423266 5.713733 -3.485675 1.585544 
-4.638829 40.293056 -4.711706 9.150440 1.096343 0.947878 -11.699218 0.019513 -0.000832 -4.218750 0.009601 0.001787 10.446764 -2.640299 -0.621728 6.786902 0.256983 -0.198345 -4.825279 0.378959 -0.167481 16.789915 0.339666 1.244566 -83.687424 -20.067675 2.937922 -26.379255 8.130646 -56.738461 -3.420314 -1.883662 -2.311842 -0.018104 -0.003944 -0.010280 -0.015681 -0.006574 -0.010607 -0.015424 -0.007546 -0.010088 -4.768952 -10.130701 0.075307 6.136953 -2.542719 -1.329028 5.977931 -4.657061 -2.299399 -3.649124 -3.899469 -0.028462 6.809108 0.587538 -0.179242 17.693647 -7.762904 -4.920654 -10.319902 0.070951 -0.943652 10.744991 5.478974 1.944765 23.550476 -1.345739 0.354980 -14.307809 -5.634895 -4.544772 3.438662 12.909055 2.795864 29.599695 -4.046283 -0.184964 -16.125750 -1.101898 1.487218 84.232269 -3.529305 -18.039267 26.152103 -7.125391 7.388197 -33.008121 20.394474 -6.360928 2.734022 8.307910 -0.104714 -6.224143 2.512025 -1.332358 -6.058117 4.747227 -2.337263 -0.001427 -0.010679 0.002670 -0.003851 -0.011809 -0.004022 -0.004104 -0.011405 -0.005351 1.926006 2.038767 -0.017843 -6.788700 -0.391102 -0.238138 -17.832827 7.798688 -4.938871 9.030812 -1.741597 -0.825117 -10.685586 -5.450859 1.935492 -23.598396 1.261770 0.420547 13.188667 4.331294 -3.999662 -3.178394 -12.874853 2.755607 -0.010665 -0.005522 -0.008007 -12.402238 -4.940482 6.714095 5.545789 6.557145 -3.556195 1.561558 1.696469 1.189450 4.666809 7.603515 -0.760056 -14.683022 -3.452901 -10.464900 8.664060 -10.142222 1.825475 3.810740 -8.527466 -5.481952 5.713733 -3.485675 1.585544 
-4.450183 40.175751 -4.366201 9.453072 1.206280 1.350132 -11.699218 0.019513 -0.000832 -4.218750 0.009601 0.001787 10.340034 -2.864830 -0.724357 7.040754 0.329165 -0.332730 -4.640009 0.524367 -0.299690 16.154724 0.272323 1.289639 -83.436371 -20.118484 4.462023 -29.538750 2.563922 -76.890686 -3.077691 -1.447376 -2.273723 -0.018104 -0.003944 -0.010280 -0.015681 -0.006574 -0.010607 -0.015424 -0.007546 -0.010088 -4.768952 -10.130701 0.075307 6.136953 -2.542719 -1.329028 5.977931 -4.657061 -2.299399 -3.649124 -3.899469 -0.028462 6.809108 0.587538 -0.179242 17.693647 -7.762904 -4.920654 -10.319902 0.070951 -0.943652 10.744991 5.478974 1.944765 23.550476 -1.345739 0.354980 -14.307809 -5.634895 -4.544772 3.438662 12.909055 2.795864 29.599695 -4.046283 -0.184964 -15.207105 -0.995899 1.549981 83.420578 -3.486021 -16.058025 28.924814 -4.143897 -12.994161 -33.251007 20.329790 -6.358796 2.734022 8.307910 -0.104714 -6.224143 2.512025 -1.332358 -6.058117 4.747227 -2.337263 -0.001427 -0.010679 0.002670 -0.003851 -0.011809 -0.004022 -0.004104 -0.011405 -0.005351 1.926006 2.038767 -0.017843 -6.788700 -0.391102 -0.238138 -17.832827 7.798688 -4.938871 9.030812 -1.741597 -0.825117 -10.685586 -5.450859 1.935492 -23.598396 1.261770 0.420547 13.188667 4.331294 -3.999662 -3.178394 -12.874853 2.755607 -0.010665 -0.005522 -0.008007 -12.399114 -5.223485 6.673355 5.863214 6.499613 -3.660620 1.708082 1.840551 1.372495 4.666809 7.603515 -0.760056 -14.869408 -3.730757 -10.372734 9.516646 -10.328641 1.345409 3.968152 -9.107461 -5.388975 5.713733 -3.485675 1.585544 
